<svg version="1.1" id="Layer_1" xmlns="http://www.w3.org/2000/svg" x="0" y="0" viewBox="405.093 -74.895 1749.813 1749.79" xml:space="preserve"><linearGradient id="SVGID_1_" gradientUnits="userSpaceOnUse" x1="106.05" y1="233.009" x2="1329.576" y2="560.852" gradientTransform="matrix(.9315 0 0 -.9315 479.99 1490.47)"><stop offset="0" style="stop-color:#3f0d05"/><stop offset=".067" style="stop-color:#953a11"/><stop offset=".143" style="stop-color:#e78822"/><stop offset=".191" style="stop-color:#fec63a"/><stop offset=".255" style="stop-color:#fad88a"/><stop offset=".321" style="stop-color:#6199c7"/><stop offset=".396" style="stop-color:#55bce8"/><stop offset=".428" style="stop-color:#5f99c9"/><stop offset=".499" style="stop-color:#4a5877"/><stop offset=".581" style="stop-color:#496589"/><stop offset=".662" style="stop-color:#c1aa94"/><stop offset=".734" style="stop-color:#a0796a"/><stop offset=".789" style="stop-color:#fdc339"/><stop offset=".849" style="stop-color:#c95a10"/><stop offset=".922" style="stop-color:#671e11"/><stop offset="1" style="stop-color:#310908"/></linearGradient><path fill="url('#SVGID_1_')" d="M1705.322 1203.516c-15.963 53.041-43.603 106.018-81.32 156.212-37.718 50.225-85.768 97.252-143.607 138.648-57.84 41.396-123.453 73.674-194.12 96.164-5.886 1.887-11.805 3.647-17.723 5.374-38.805-.543-77.226-3.966-115.23-10.077a801.282 801.282 0 0 1-195.56-57.87A803.608 803.608 0 0 1 782.1 1426.012c-43.987-34.934-84.647-74.987-120.829-119.102-8.19-9.981-16.22-20.09-23.897-30.487-41.716-56.336-76.97-119.742-103.49-188.426-26.521-68.684-42.804-138.264-49.874-208.228-3.071-30.615-4.383-61.039-3.935-91.238a812.54 812.54 0 0 0 5.375 17.755c22.521 70.636 54.768 136.28 96.164 194.12s88.454 105.89 138.648 143.607c50.193 37.717 103.17 65.357 156.211 81.32 106.113 31.927 199.975 29.4 266.227 3.295 26.648-10.493 48.05-22.65 64.301-35.51 1.44.288 2.912.576 4.351.832 50.418 8.766 102.147 7.998 152.885-2.91 50.705-10.91 99.683-31.704 144.95-63.343 45.235-31.638 82.28-71.403 109.856-115.518 19.003-30.36 33.718-63.086 43.891-96.965 4.191-13.915 7.55-27.991 10.206-42.227 12.86 16.251 24.984 37.685 35.51 64.333 26.104 66.221 28.599 160.082-3.328 266.195z"/><linearGradient id="SVGID_2_" gradientUnits="userSpaceOnUse" x1="678.43" y1="270.449" x2="350.591" y2="1493.959" gradientTransform="matrix(.9315 0 0 -.9315 479.99 1490.47)"><stop offset="0" style="stop-color:#310908"/><stop offset=".078" style="stop-color:#671e11"/><stop offset=".151" style="stop-color:#c95a10"/><stop offset=".211" style="stop-color:#fdc339"/><stop offset=".266" style="stop-color:#a0796a"/><stop offset=".338" style="stop-color:#c1aa94"/><stop offset=".419" style="stop-color:#496589"/><stop offset=".501" style="stop-color:#4a5877"/><stop offset=".572" style="stop-color:#5f99c9"/><stop offset=".604" style="stop-color:#55bce8"/><stop offset=".679" style="stop-color:#6199c7"/><stop offset=".745" style="stop-color:#fad88a"/><stop offset=".809" style="stop-color:#fec63a"/><stop offset=".857" style="stop-color:#e78822"/><stop offset=".933" style="stop-color:#953a11"/><stop offset="1" style="stop-color:#3f0d05"/></linearGradient><path fill="url('#SVGID_2_')" d="M854.687 396.485c-31.958 106.113-29.431 199.974-3.327 266.195 10.525 26.649 22.65 48.082 35.51 64.334-.288 1.44-.576 2.879-.832 4.35-8.765 50.386-7.965 102.115 2.943 152.852 10.878 50.738 31.672 99.716 63.31 144.95 31.639 45.268 71.436 82.313 115.52 109.889a400.824 400.824 0 0 0 96.995 43.86 393.18 393.18 0 0 0 42.195 10.204c-16.25 12.86-37.653 25.017-64.3 35.51-66.253 26.105-160.115 28.632-266.228-3.295-53.04-15.963-106.018-43.603-156.211-81.32-50.193-37.718-97.252-85.768-138.648-143.607-41.396-57.84-73.643-123.485-96.164-194.12a812.54 812.54 0 0 1-5.375-17.755c.544-38.805 3.967-77.226 10.11-115.2 10.876-67.564 30.359-133.145 57.839-195.59 27.48-62.447 63.118-121.694 105.953-175.63 34.934-44.02 74.986-84.68 119.102-120.83 9.98-8.19 20.09-16.219 30.487-23.929 56.335-41.716 119.741-76.97 188.425-103.458 68.685-26.52 138.265-42.836 208.229-49.873a788.24 788.24 0 0 1 91.237-3.935c-5.918 1.727-11.836 3.487-17.723 5.374-70.667 22.49-136.28 54.768-194.12 96.165-57.839 41.395-105.921 88.422-143.607 138.647-37.717 50.194-65.356 103.14-81.32 156.212z"/><linearGradient id="SVGID_3_" gradientUnits="userSpaceOnUse" x1="1039.183" y1="1211.973" x2="1367.02" y2="-11.531" gradientTransform="matrix(.9315 0 0 -.9315 479.99 1490.47)"><stop offset="0" style="stop-color:#310908"/><stop offset=".078" style="stop-color:#671e11"/><stop offset=".151" style="stop-color:#c95a10"/><stop offset=".211" style="stop-color:#fdc339"/><stop offset=".266" style="stop-color:#a0796a"/><stop offset=".338" style="stop-color:#c1aa94"/><stop offset=".419" style="stop-color:#496589"/><stop offset=".501" style="stop-color:#4a5877"/><stop offset=".572" style="stop-color:#5f99c9"/><stop offset=".604" style="stop-color:#55bce8"/><stop offset=".679" style="stop-color:#6199c7"/><stop offset=".745" style="stop-color:#fad88a"/><stop offset=".809" style="stop-color:#fec63a"/><stop offset=".857" style="stop-color:#e78822"/><stop offset=".933" style="stop-color:#953a11"/><stop offset="1" style="stop-color:#3f0d05"/></linearGradient><path fill="url('#SVGID_3_')" d="M2079.934 811.47a794.538 794.538 0 0 1-10.109 115.198c-10.909 67.565-30.359 133.146-57.84 195.592-27.511 62.414-63.117 121.693-105.952 175.63-34.935 44.019-74.987 84.679-119.103 120.828-9.98 8.19-20.09 16.22-30.487 23.898-56.367 41.748-119.773 77.002-188.425 103.49-68.684 26.52-138.265 42.803-208.228 49.873-30.647 3.071-61.07 4.383-91.238 3.935 5.918-1.728 11.837-3.487 17.723-5.374 70.668-22.49 136.28-54.768 194.12-96.164 57.839-41.396 105.89-88.423 143.606-138.649 37.718-50.193 65.357-103.17 81.32-156.21 31.928-106.114 29.433-199.975 3.328-266.196-10.525-26.648-22.65-48.082-35.51-64.333.256-1.44.544-2.88.8-4.351 8.798-50.386 7.998-102.147-2.911-152.852-10.877-50.737-31.67-99.715-63.31-144.95-31.67-45.268-71.435-82.313-115.518-109.889-30.392-19.003-63.086-33.686-96.997-43.891-13.883-4.159-27.991-7.55-42.195-10.205 16.22-12.86 37.653-24.985 64.302-35.478 66.22-26.105 160.08-28.632 266.195 3.295 53.072 15.963 106.049 43.603 156.242 81.32 50.194 37.718 97.253 85.768 138.649 143.607 41.396 57.84 73.642 123.484 96.164 194.12a818.533 818.533 0 0 1 5.374 17.755z"/><linearGradient id="SVGID_4_" gradientUnits="userSpaceOnUse" x1="388.035" y1="921.567" x2="1611.547" y2="1249.406" gradientTransform="matrix(.9315 0 0 -.9315 479.99 1490.47)"><stop offset="0" style="stop-color:#310908"/><stop offset=".078" style="stop-color:#671e11"/><stop offset=".151" style="stop-color:#c95a10"/><stop offset=".211" style="stop-color:#fdc339"/><stop offset=".266" style="stop-color:#a0796a"/><stop offset=".338" style="stop-color:#c1aa94"/><stop offset=".419" style="stop-color:#496589"/><stop offset=".501" style="stop-color:#4a5877"/><stop offset=".572" style="stop-color:#5f99c9"/><stop offset=".604" style="stop-color:#55bce8"/><stop offset=".679" style="stop-color:#6199c7"/><stop offset=".745" style="stop-color:#fad88a"/><stop offset=".809" style="stop-color:#fec63a"/><stop offset=".857" style="stop-color:#e78822"/><stop offset=".933" style="stop-color:#953a11"/><stop offset="1" style="stop-color:#3f0d05"/></linearGradient><path fill="url('#SVGID_4_')" d="M2079.934 811.47a816.183 816.183 0 0 0-5.374-17.756c-22.521-70.635-54.769-136.28-96.164-194.12-41.396-57.84-88.455-105.89-138.649-143.606-50.193-37.718-103.17-65.358-156.242-81.321-106.114-31.927-199.975-29.4-266.196-3.295-26.648 10.493-48.082 22.617-64.301 35.478-1.472-.256-2.912-.544-4.352-.8-50.417-8.798-102.146-7.998-152.883 2.911-50.706 10.91-99.684 31.703-144.95 63.342-45.236 31.639-82.313 71.403-109.857 115.519-19.002 30.359-33.718 63.085-43.891 96.964a393.59 393.59 0 0 0-10.205 42.228c-12.86-16.252-24.985-37.686-35.51-64.334-26.104-66.22-28.632-160.082 3.327-266.195 15.963-53.073 43.603-106.018 81.32-156.211 37.686-50.226 85.768-97.253 143.607-138.648 57.84-41.397 123.452-73.675 194.12-96.165 5.887-1.887 11.805-3.647 17.723-5.374 38.805.544 77.226 3.967 115.231 10.077 67.532 10.909 133.114 30.36 195.56 57.871a803.62 803.62 0 0 1 175.661 105.954c43.988 34.934 84.648 74.954 120.829 119.101 8.158 9.982 16.187 20.09 23.898 30.488 41.716 56.336 76.97 119.741 103.49 188.426 26.488 68.684 42.804 138.264 49.841 208.228a795.474 795.474 0 0 1 3.967 91.237z"/></svg>